<svg id="Layer_2" data-name="Layer 2" xmlns="http://www.w3.org/2000/svg" width="596" height="116" viewBox="0 0 596 116">
  <g>
    <path d="M544.94,4a1.73,1.73,0,1,0-1.73-1.73A1.72,1.72,0,0,0,544.94,4Z" fill="#FFF"/>
    <polygon points="532.27 31.98 557.61 31.98 544.94 5.16 532.27 31.98" fill="#FFF"/>
    <circle cx="575.31" cy="31.7" r="1.73" fill="#FFF"/>
    <polygon points="568.1 53.31 582.52 53.31 575.31 34.63 568.1 53.31" fill="#FFF"/>
    <polygon points="507.36 53.31 521.78 53.31 514.57 34.63 507.36 53.31" fill="#FFF"/>
    <circle cx="514.57" cy="31.7" r="1.73" fill="#FFF"/>
    <path d="M565.84,108a38.41,38.41,0,0,1-8.17,2.87l1.54,2.78a52.64,52.64,0,0,0,17.72-8.46h0l.05,0h0A32,32,0,0,0,565.84,108Z" fill="#FFF"/>
    <path d="M525.09,108a33,33,0,0,0-12.42-2.93h0c.54.4,1.09.79,1.64,1.17h0a54.11,54.11,0,0,0,30.57,9.27c1,0,2,0,3-.08l-1.78-3.2C538.57,112.31,531,110.9,525.09,108Z" fill="#FFF"/>
    <path d="M595.82,70.2l-13.3,2.48V56.92h.93V55.27H567.19v1.65h.94V75.37l-9.79,1.83h0V35.91h.93V34.26H530.62v1.65h.93V77.2h0l-9.74-1.82V56.91h.92V55.27H506.43v1.64h.93V72.68L494,70.17c0,.21,0,.41,0,.61s0,.22,0,.34A43,43,0,0,0,501.15,93l.56-.07-.55.08h0c.33.49.66,1,1,1.45a.76.76,0,0,0,.08.11c.34.47.68.93,1,1.39,9.43-1.17,19.74.1,27.25,3.82a31.17,31.17,0,0,0,10.17,2.74L538.75,99h0V79.59c0-3.79,2.78-6.86,6.21-6.86s6.21,3.07,6.21,6.86V99.13h0l1.64,3a28.61,28.61,0,0,0,7.62-2.37h0c7.22-3.57,17-4.88,26.17-3.93h0c.37-.48.73-1,1.08-1.46l.13-.2c.31-.43.61-.87.9-1.31h0l-.17,0,.18,0A43.06,43.06,0,0,0,595.82,70.2Zm-79,4.22-4.5-.84v-7.4a2.26,2.26,0,1,1,4.5,0Zm30.41-19.17h-4.5V45.51a2.26,2.26,0,1,1,4.5,0ZM577.6,73.58l-4.5.84V66.18a2.26,2.26,0,1,1,4.5,0Z" fill="#FFF"/>
    <path d="M562.22,102.47a31.67,31.67,0,0,1-7.79,2.56l1.61,2.9a34.43,34.43,0,0,0,8-2.7c4.69-2.31,10.86-3.45,17-3.42h0c.51-.48,1-1,1.51-1.46.18-.17.35-.36.52-.54s.63-.64.93-1l.06-.06C576.3,98.3,568.17,99.53,562.22,102.47Z" fill="#FFF"/>
    <path d="M544.33,109l-1.78-3.21a37,37,0,0,1-13.84-3.34c-6.23-3.08-14.84-4.28-22.94-3.61l.27.28c.36.38.71.75,1.08,1.12.18.19.37.37.56.55l.86.82.22.2c6.52-.19,13.17.94,18.14,3.4A42.49,42.49,0,0,0,544.33,109Z" fill="#FFF"/>
  </g>
  <g>
    <path d="M.81,88.14V47.28h16.3c9.28,0,13,5.38,13.07,12.11.06,5-2.49,9.11-7.47,10.53l9,18.22H23.05L15.36,71.5H8.62V88.14Zm7.81-23h5.77c6.12,0,8-1.92,8-5.77s-2.32-5.77-6.62-5.77H8.62V65.16Z" fill="#FFF"/>
    <path d="M52.76,88.14l-.46-2.55a15.33,15.33,0,0,1-9.16,3.11c-5.32,0-8-3.79-8-7.81,0-6.67,5.43-10.18,16.86-11.54V66.86c0-2.26-1.81-3.51-4.3-3.51-3.28,0-5.09,1.76-6.45,3.62l-4.53-3.45c1.81-3.11,6.68-5.49,11-5.37C55.64,58.31,59,61.2,59,70V83.89a13.2,13.2,0,0,0,.56,4.25ZM52,74.05c-4.7.9-9.85,1.86-9.85,6a3.19,3.19,0,0,0,3.4,3.45c2.21,0,5-1.86,6.45-3.11V74.05Z" fill="#FFF"/>
    <path d="M66.05,88.14V58.71H72.5v3.17c2.61-1.81,5.6-3.73,9-3.73,5.89,0,8.72,3.84,8.72,9.84V88.14h-7V69c0-4-1.24-5.21-3.62-5.21a9,9,0,0,0-6.56,3.12V88.14Z" fill="#FFF"/>
    <path d="M121.73,88.14h-5.94L115.45,85c-2.49,2.43-4.81,3.73-8,3.73-7.81,0-11.77-6.9-11.77-16.07,0-7.24,4.19-14.48,11.77-14.48a10.19,10.19,0,0,1,7.13,3.28h.11V47.28h7V88.14Zm-7-21.85a8,8,0,0,0-5.43-2.49c-4.19,0-6.56,3.4-6.56,9.63S105.09,83,109.28,83c3,0,4-1.47,5.43-2.6V66.29Z" fill="#FFF"/>
    <path d="M133.72,74.55c.12,6.12,2.83,8.49,6.11,8.49s4.81-1.47,6.57-3.51l5.09,3.17c-2.71,4.19-6.68,6-12.34,6-7.63,0-12.44-5.94-12.44-15.27s4.81-15.28,12.78-15.28c7.7-.06,12,6.45,12,13.52v2.88ZM145,69.8c-.11-4.07-2.26-6.45-5.66-6.45s-5.54,2.38-5.66,6.45Z" fill="#FFF"/>
    <path d="M156.81,88.14V58.71h6.45v5h.11c1.7-3.51,4.07-5.49,8.26-5.6v7.41a7.48,7.48,0,0,0-1.24-.06c-3.51,0-6.57,4-6.57,4.76V88.14Z" fill="#FFF"/>
    <path d="M190.42,66.46c-1.42-1.52-3.28-3.11-5.49-3.11-2.72,0-4,1.13-4,2.89,0,5,14.71,2.88,14.71,13.63,0,6.12-4.64,8.83-10.81,8.83a13,13,0,0,1-11.14-5.94l4.69-3.51c1.64,2.27,3.85,4.24,6.85,4.24,2.49,0,4.18-1.35,4.18-3.33,0-5-14.71-3.23-14.71-13.47,0-5.49,4.64-8.54,9.74-8.54a13.5,13.5,0,0,1,10.35,4.47l-4.41,3.84Z" fill="#FFF"/>
    <polygon points="225.95 88.14 221.42 88.14 221.42 47.28 225.95 47.28 225.95 68.5 226.06 68.5 242.98 47.28 248.35 47.28 235.68 62.67 249.88 88.14 244.73 88.14 232.57 66.41 225.95 74.44 225.95 88.14 225.95 88.14" fill="#FFF"/>
    <path d="M266.74,88.7c-8,0-12.05-6.79-12.05-15.27s4-15.28,12.05-15.28,12.06,6.79,12.06,15.28-4,15.27-12.06,15.27Zm0-27.05c-4.86,0-8,4.19-8,11.78s3.11,11.76,8,11.76,8-4.19,8-11.76-3.11-11.78-8-11.78Z" fill="#FFF"/>
    <path d="M285.53,88.14V58.71h4.07v3.91l.23-.23a12,12,0,0,1,8.55-4.24c3.78,0,6.45,1.92,7.52,4.64,2.6-2.78,5.88-4.64,9.34-4.64,3.9,0,8.09,1.64,8.09,8.94v21h-4.07v-21c0-4-2-5.44-4.59-5.44-3.62,0-6,2.38-8.21,4.53v22h-4.07v-21c0-4-2-5.44-4.58-5.44-3.62,0-6,2.38-8.21,4.53v22Z" fill="#FFF"/>
    <path d="M332.66,88.14V58.71h4.08v3.91l.23-.23a11.93,11.93,0,0,1,8.53-4.24c3.8,0,6.46,1.92,7.53,4.64,2.6-2.78,5.89-4.64,9.34-4.64,3.9,0,8.09,1.64,8.09,8.94v21h-4.08v-21c0-4-2-5.44-4.58-5.44-3.62,0-6,2.38-8.2,4.53v22h-4.08v-21c0-4-2-5.44-4.58-5.44-3.62,0-6,2.38-8.2,4.53v22Z" fill="#FFF"/>
    <path d="M397.5,88.14v-4h-.11c-2.32,2.6-5.38,4.52-8.71,4.52-4.36,0-8.49-2.26-8.49-8.6V58.71h4.07V80c0,3.9,1.87,5.2,4.81,5.2s6.57-2.49,8.43-4.46v-22h4.08V88.14Z" fill="#FFF"/>
    <path d="M415.72,58.71v4h.12c2.32-2.6,5.37-4.52,8.71-4.52,4.36,0,8.49,2.26,8.49,8.6V88.14H429V66.86c0-3.91-1.86-5.21-4.8-5.21s-6.57,2.49-8.44,4.48v22h-4.07V58.71Z" fill="#FFF"/>
    <path d="M464.44,81.86c-1.92,3.33-4.64,6.84-11.31,6.84s-12.79-4.52-12.79-15.27c0-9.51,4.75-15.28,12-15.28,6.12,0,11.21,4,11.21,13.35v2.72H444.41c0,6.45,3.85,11,8.72,11a9.09,9.09,0,0,0,8.14-5l3.17,1.65Zm-5-11.15c0-5.43-2.6-9.06-7-9.06-4.93,0-7.59,3.63-7.93,9.06Z" fill="#FFF"/>
  </g>
</svg>
